<?xml version="1.0" encoding="UTF-8"?><svg xmlns="http://www.w3.org/2000/svg" width="1000" height="1000" xmlns:xlink="http://www.w3.org/1999/xlink" viewBox="0 0 1000 1000"><g id="Logo_3"><image width="1269" height="1805" transform="translate(95 357.32) rotate(-49.03) scale(.35 .42)" xlink:href="logo1.png"/></g><g id="Logo_1"><g id="Frame"><polygon points="422.84 211.38 422.84 217.38 861.12 217.38 861.12 696 675.11 696 675.11 702 867.12 702 867.12 211.38 422.84 211.38"/><polygon points="137.4 217.38 320.81 217.38 320.81 211.38 131.4 211.38 131.4 702 608.96 702 608.96 696 137.4 696 137.4 217.38"/></g><g id="Text"><path d="M134.97,783.82c0-21.17,14.71-32.74,30.2-32.74s30.11,11.1,30.11,32.74-14.62,32.83-30.11,32.83-30.2-11.1-30.2-32.83Zm46.56,0c0-14.77-4.74-27.75-16.36-27.75s-16.55,12.98-16.55,27.75,4.84,27.75,16.55,27.75,16.36-12.89,16.36-27.75Z"/><path d="M239.8,752.68h29.52v4.42l-8.52,.94c-.19,7.81-.19,15.8-.19,23.8v5.74c0,6.68,0,14.49,.19,22.39h19.55l2.71-12.98h6.78l-.97,18.06h-49.08v-4.42l8.13-.85c.19-7.9,.19-15.71,.19-22.86v-5.08c0-8.09,0-16.09-.19-23.89l-8.13-.85v-4.42Z"/><path d="M334.28,752.68h29.14v4.42l-8.13,.85c-.19,7.81-.19,15.8-.19,23.89v4.05c0,7.9,0,15.9,.19,23.89l8.13,.85v4.42h-29.14v-4.42l8.13-.85c.19-7.81,.19-15.8,.19-23.89v-4.05c0-7.9,0-15.9-.19-23.89l-8.13-.85v-4.42Z"/><path d="M406.98,752.68h28.75v4.52l-8.71,.94,14.71,42.05,14.71-41.96-8.13-1.04v-4.52h21.68v4.42l-7.84,1.13-20.23,57.19h-6.68l-21.68-57.67-6.58-.66v-4.42Z"/><path d="M513.07,752.68h48.79l.68,16.46h-6.78l-2.03-11.48h-19.65c-.19,7.9-.19,15.99-.19,22.86h12.49l1.26-8.18h5.03v21.26h-5.03l-1.16-8.09h-12.58c0,9.03,0,16.84,.19,24.55h21.59l2.03-11.48h6.78l-.68,16.46h-50.72v-4.42l8.13-.85c.19-7.81,.19-15.8,.19-23.89v-4.05c0-7.9,0-15.9-.19-23.89l-8.13-.85v-4.42Z"/><path d="M609.77,752.68h29.14c15.1,0,23.62,5.93,23.62,15.99,0,6.87-4.84,13.55-16.75,15.43,8.13,1.32,11.52,5.36,13.36,13.45l3,12.32,7.45,.75v4.42c-3.19,.85-5.13,1.13-8.81,1.13-7.16,0-10.94-1.88-12-7.71l-2.81-13.08c-1.45-7.06-4.45-9.12-11.33-9.12h-4.16c0,8.47,0,15.99,.19,23.52l8.23,.85v4.42h-29.14v-4.42l8.13-.85c.19-7.81,.19-15.8,.19-23.89v-4.05c0-7.9,0-15.9-.19-23.89l-8.13-.85v-4.42Zm20.91,4.8c-.19,8-.19,16.09-.19,24.08h5.61c10.07,0,14.04-5.46,14.04-12.32,0-7.71-4.26-11.76-13.26-11.76h-6.2Z"/><path d="M773.56,783.82c0-20.51,14.91-32.74,33.4-32.74,6.29,0,12.68,1.22,18.88,4.61l.39,14.11h-6.68l-2.32-11.66c-2.9-1.51-5.71-2.07-8.52-2.07-11.62,0-21.49,9.03-21.49,27.84s9.1,27.66,20.91,27.66c3.29,0,6.68-.75,9.97-2.16l2.32-11.48h6.58l-.39,14.02c-5.61,3.01-12.29,4.7-19.94,4.7-19.07,0-33.11-12.23-33.11-32.83Z"/></g></g></svg>